<svg xmlns="http://www.w3.org/2000/svg" viewBox="0 0 59 59" width="59" height="59">
	<style>
		tspan { white-space:pre }
		.shp0 { fill: #666d89 } 
		.shp1 { fill: none;stroke: #666d89;stroke-width: 2 } 
	</style>
	<g id="Bubble">
		<path id="bubble" class="shp0" d="M30 21C24.04 21 19 24.21 19 28C19 28.28 19.22 28.5 19.5 28.5C19.78 28.5 20 28.28 20 28C20 24.8 24.67 22 30 22C30.28 22 30.5 21.78 30.5 21.5C30.5 21.22 30.28 21 30 21ZM30 16C21.16 16 14 21.37 14 28C14 32.13 16.78 35.77 21.01 37.93C21.01 37.95 21 37.97 21 38C21 39.79 19.66 41.72 19.07 42.74C19.07 42.74 19.07 42.74 19.07 42.74C19.03 42.85 19 42.97 19 43.09C19 43.59 19.41 44 19.91 44C20 44 20.17 43.97 20.16 43.99C23.29 43.48 26.23 40.6 26.91 39.77C27.91 39.92 28.94 40 30 40C38.84 40 46 34.63 46 28C46 21.37 38.84 16 30 16ZM30 38C29.08 38 28.14 37.93 27.2 37.79C27.11 37.78 27.01 37.77 26.91 37.77C26.32 37.77 25.75 38.04 25.37 38.5C24.94 39.02 23.72 40.19 22.28 41.04C22.67 40.15 22.98 39.14 23 38.11C23 38.05 23.01 37.98 23.01 37.93C23.01 37.17 22.59 36.49 21.92 36.14C18.21 34.25 16 31.21 16 28C16 22.49 22.28 18 30 18C37.72 18 44 22.49 44 28C44 33.51 37.72 38 30 38Z" />
		<path id="Ellipse" class="shp1" d="M29.5 0C45.79 0 59 13.21 59 29.5C59 45.79 45.79 59 29.5 59C13.21 59 0 45.79 0 29.5C0 13.21 13.21 0 29.5 0Z" />
	</g>
</svg>