<svg xmlns="http://www.w3.org/2000/svg" viewBox="0 0 59 59" width="59" height="59">
	<style>
		tspan { white-space:pre }
		.shp0 { fill: #666d89 } 
		.shp1 { fill: none;stroke: #666d89;stroke-width: 2 } 
	</style>
	<g id="Bulb">
		<path id="bulb" class="shp0" d="M30 13C23.92 13 19 17.92 19 24C19 28.03 22.69 32.3 24.03 36.05C26.03 41.65 25.81 45 30 45C34.25 45 33.96 41.67 35.97 36.08C37.32 32.32 41 28 41 24C41 17.92 36.08 13 30 13ZM32.59 40.18L27.63 40.8C27.46 40.28 27.27 39.68 27.04 38.9C27.03 38.89 27.03 38.88 27.03 38.87L33.22 38.1C33.13 38.39 33.03 38.7 32.95 38.98C32.82 39.43 32.7 39.82 32.59 40.18ZM26.74 37.91C26.55 37.31 26.35 36.67 26.12 36L33.89 36C33.76 36.36 33.64 36.72 33.54 37.06L26.74 37.91ZM30 43C28.99 43 28.52 42.88 28 41.75L32.24 41.22C31.63 42.87 31.18 43 30 43ZM34.67 34L25.34 34C24.84 32.92 24.24 31.84 23.65 30.78C22.35 28.45 21 26.03 21 24C21 19.04 25.04 15 30 15C34.96 15 39 19.04 39 24C39 26.02 37.65 28.45 36.34 30.8C35.76 31.85 35.17 32.93 34.67 34ZM30 18C26.69 18 24 20.69 24 24C24 24.28 24.22 24.5 24.5 24.5C24.78 24.5 25 24.28 25 24C25 21.24 27.24 19 30 19C30.28 19 30.5 18.78 30.5 18.5C30.5 18.22 30.28 18 30 18Z" />
		<path id="Ellipse" class="shp1" d="M29.5 0C45.79 0 59 13.21 59 29.5C59 45.79 45.79 59 29.5 59C13.21 59 0 45.79 0 29.5C0 13.21 13.21 0 29.5 0Z" />
	</g>
</svg>