<svg xmlns="http://www.w3.org/2000/svg" viewBox="0 0 59 59" width="59" height="59">
	<style>
		tspan { white-space:pre }
		.shp0 { fill: #666d89 } 
		.shp1 { fill: none;stroke: #666d89;stroke-width: 2 } 
	</style>
	<g id="Heart">
		<path id="heart" class="shp0" d="M43.19 18.79C39.56 15.2 33.76 15.13 30 18.5C26.24 15.13 20.44 15.2 16.81 18.79C13.07 22.49 13.07 28.49 16.81 32.19C17.88 33.25 27.86 43.12 27.86 43.12C29.04 44.29 30.96 44.29 32.14 43.12C32.14 43.12 43.07 32.31 43.19 32.19C46.93 28.49 46.93 22.49 43.19 18.79ZM41.77 30.78L30.71 41.71C30.32 42.1 29.68 42.1 29.29 41.71L18.24 30.78C15.28 27.86 15.28 23.12 18.24 20.2C21.08 17.39 25.65 17.29 28.64 19.98L30 21.2L31.36 19.98C34.35 17.29 38.92 17.39 41.77 20.2C44.72 23.12 44.72 27.86 41.77 30.78ZM23.25 21.03C23.25 21.03 23.25 21.03 23.25 21.03C20.9 21.03 19 22.93 19 25.27L19 25.27C19 25.55 19.23 25.77 19.5 25.77C19.78 25.77 20 25.55 20 25.27L20 25.27C20 23.48 21.46 22.03 23.25 22.03L23.25 22.03C23.53 22.03 23.75 21.8 23.75 21.53C23.75 21.25 23.53 21.03 23.25 21.03Z" />
		<path id="Ellipse" class="shp1" d="M29.5 0C45.79 0 59 13.21 59 29.5C59 45.79 45.79 59 29.5 59C13.21 59 0 45.79 0 29.5C0 13.21 13.21 0 29.5 0Z" />
	</g>
</svg>