<svg xmlns="http://www.w3.org/2000/svg" viewBox="0 0 59 59" width="59" height="59">
	<style>
		tspan { white-space:pre }
		.shp0 { fill: #666d89 } 
		.shp1 { fill: none;stroke: #666d89;stroke-width: 2 } 
	</style>
	<g id="Pen">
		<path id="pen" class="shp0" d="M43.4 16.58C41.75 14.94 39.59 14 37.45 14C35.65 14 33.99 14.67 32.78 15.88L27.91 20.78C27.9 20.79 27.88 20.8 27.87 20.82C27.86 20.83 27.85 20.84 27.85 20.85L27.85 20.85L17.52 31.26C17.04 31.73 16.7 32.32 16.5 32.96L14.16 41.47C14.15 41.49 14 42.16 14 42.5C14 44.43 15.57 46 17.5 46C17.89 46 18.63 45.82 18.66 45.81L27.14 43.58C27.78 43.39 28.37 43.04 28.84 42.57L44.11 27.19C46.88 24.41 46.57 19.75 43.4 16.58ZM30.01 37.8C29.93 36.89 29.68 36.01 29.3 35.17L38.75 25.71C39.33 27.54 39.03 29.45 37.76 30.72C37.76 30.73 37.75 30.73 37.74 30.74L37.75 30.75L30.02 38.54C30.03 38.29 30.04 38.05 30.01 37.8ZM28.79 34.26C28.42 33.64 28 33.05 27.47 32.53C26.86 31.92 26.16 31.44 25.43 31.04L34.96 21.5C35.71 21.84 36.42 22.31 37.06 22.94C37.6 23.48 38.02 24.08 38.34 24.71L28.79 34.26ZM24.49 30.56C23.56 30.19 22.59 29.98 21.62 29.96L29.32 22.2C30.5 21.05 32.22 20.72 33.91 21.14L24.49 30.56ZM18.17 43.87C18.06 43.9 17.72 43.98 17.49 44C16.67 43.99 16 43.32 16 42.5C16.01 42.33 16.08 42.04 16.1 41.94L17.15 38.12C18.3 38.09 19.53 38.54 20.49 39.51C21.48 40.49 21.94 41.74 21.89 42.9L18.17 43.87ZM22.87 42.64C22.85 41.3 22.3 39.9 21.2 38.8C20.16 37.76 18.8 37.15 17.44 37.1L18.43 33.49C18.5 33.25 18.65 33.02 18.82 32.81C20.83 31.37 23.91 31.8 26.06 33.94C28.32 36.21 28.67 39.53 26.93 41.51C26.81 41.57 26.7 41.63 26.57 41.67L22.87 42.64ZM42.69 25.77L41.01 27.47C41.01 27.24 41.04 27.03 41.01 26.8C40.84 24.86 39.94 22.99 38.47 21.53C36.84 19.9 34.68 18.96 32.54 18.96L34.2 17.29C35.03 16.46 36.18 16 37.45 16C39.06 16 40.71 16.73 41.98 18C43.18 19.19 43.89 20.67 43.99 22.16C44.08 23.56 43.62 24.84 42.69 25.77Z" />
		<path id="Ellipse" class="shp1" d="M29.5 0C45.79 0 59 13.21 59 29.5C59 45.79 45.79 59 29.5 59C13.21 59 0 45.79 0 29.5C0 13.21 13.21 0 29.5 0Z" />
	</g>
</svg>