<svg xmlns="http://www.w3.org/2000/svg" viewBox="0 0 59 59" width="59" height="59">
	<style>
		tspan { white-space:pre }
		.shp0 { fill: #666d89 } 
		.shp1 { fill: none;stroke: #666d89;stroke-width: 2 } 
	</style>
	<g id="Phone">
		<path id="phone" class="shp0" d="M38 14L22 14C20.34 14 19 15.34 19 17L19 43C19 44.66 20.34 46 22 46L38 46C39.66 46 41 44.66 41 43L41 17C41 15.34 39.66 14 38 14ZM39 43C39 43.55 38.55 44 38 44L22 44C21.45 44 21 43.55 21 43L21 41L39 41L39 43ZM39 40L21 40L21 20L39 20L39 40ZM39 19L21 19L21 17C21 16.45 21.45 16 22 16L38 16C38.55 16 39 16.45 39 17L39 19ZM32 17.5C32 17.78 31.78 18 31.5 18L28.5 18C28.22 18 28 17.78 28 17.5L28 17.5C28 17.22 28.22 17 28.5 17L31.5 17C31.78 17 32 17.22 32 17.5L32 17.5ZM31 42.5C31 42.77 30.78 43 30.5 43L29.5 43C29.22 43 29 42.77 29 42.5L29 42.5C29 42.22 29.22 42 29.5 42L30.5 42C30.78 42 31 42.22 31 42.5L31 42.5Z" />
		<path id="Ellipse" class="shp1" d="M29.5 0C45.79 0 59 13.21 59 29.5C59 45.79 45.79 59 29.5 59C13.21 59 0 45.79 0 29.5C0 13.21 13.21 0 29.5 0Z" />
	</g>
</svg>