<svg xmlns="http://www.w3.org/2000/svg" viewBox="0 0 59 59" width="59" height="59">
	<style>
		tspan { white-space:pre }
		.shp0 { fill: #666d89 } 
		.shp1 { fill: none;stroke: #666d89;stroke-width: 2 } 
	</style>
	<g id="Star">
		<path id="star" class="shp0" d="M45.88 25.56C45.6 24.76 44.89 24.17 44.04 24.05L35.71 22.81L32.09 15.29C31.71 14.51 30.9 14 30 14C29.1 14 28.29 14.51 27.91 15.29L24.29 22.81L15.96 24.05C15.11 24.17 14.4 24.76 14.12 25.56C13.84 26.36 14.05 27.24 14.66 27.84L20.76 33.93L19.34 42.39C19.2 43.24 19.57 44.09 20.29 44.59C20.69 44.86 21.16 45 21.62 45C22.01 45 22.39 44.91 22.74 44.72L30 40.81L37.26 44.72C37.61 44.91 37.99 45 38.38 45C38.84 45 39.31 44.86 39.71 44.59C40.43 44.09 40.8 43.24 40.66 42.39L39.24 33.93L45.34 27.84C45.95 27.24 46.16 26.36 45.88 25.56ZM37.59 32.36C37.08 32.87 36.84 33.59 36.96 34.3L38.38 42.75L31.12 38.84C30.77 38.65 30.38 38.56 30 38.56C29.62 38.56 29.23 38.65 28.88 38.84L21.62 42.75L23.04 34.3C23.16 33.59 22.92 32.87 22.41 32.36L16.31 26.27L24.64 25.03C25.4 24.92 26.05 24.44 26.38 23.76L30 16.25L33.62 23.76C33.95 24.44 34.6 24.92 35.36 25.03L43.69 26.27L37.59 32.36Z" />
		<path id="Ellipse" class="shp1" d="M29.5 0C45.79 0 59 13.21 59 29.5C59 45.79 45.79 59 29.5 59C13.21 59 0 45.79 0 29.5C0 13.21 13.21 0 29.5 0Z" />
	</g>
</svg>